<?xml version="1.0" encoding="UTF-8" standalone="no"?>
<!-- Created with Inkscape (http://www.inkscape.org/) -->

<svg
   width="512"
   height="512"
   viewBox="0 0 512 512"
   version="1.1"
   id="svg1"
   inkscape:version="1.3.1 (9b9bdc1480, 2023-11-25, custom)"
   sodipodi:docname="icon.svg"
   xmlns:inkscape="http://www.inkscape.org/namespaces/inkscape"
   xmlns:sodipodi="http://sodipodi.sourceforge.net/DTD/sodipodi-0.dtd"
   xmlns="http://www.w3.org/2000/svg"
   xmlns:svg="http://www.w3.org/2000/svg">
  <sodipodi:namedview
     id="namedview1"
     pagecolor="#ffffff"
     bordercolor="#111111"
     borderopacity="1"
     inkscape:showpageshadow="0"
     inkscape:pageopacity="0"
     inkscape:pagecheckerboard="1"
     inkscape:deskcolor="#d1d1d1"
     inkscape:document-units="px"
     inkscape:zoom="1.3922683"
     inkscape:cx="240.25542"
     inkscape:cy="231.99551"
     inkscape:window-width="1920"
     inkscape:window-height="946"
     inkscape:window-x="0"
     inkscape:window-y="0"
     inkscape:window-maximized="1"
     inkscape:current-layer="layer1" />
  <defs
     id="defs1" />
  <g
     inkscape:label="Layer 1"
     inkscape:groupmode="layer"
     id="layer1">
    <rect
       style="fill:#f5deb3;fill-opacity:1"
       id="cake-bottom"
       width="480"
       height="256"
       x="16"
       y="256"
       ry="16" />
    <path
       id="candle"
       style="fill:#ff4500;fill-opacity:1;stroke-width:0.948636"
       d="m 247,65.769317 c -1.662,0 -3,1.338001 -3,3 v 60.999993 29 35 h 24 v -35 -29 -60.999993 c 0,-1.661999 -1.338,-3 -3,-3 z" />
    <path
       id="flame-outer"
       style="fill:#ffa500;fill-opacity:1;stroke-width:0.752996"
       inkscape:transform-center-x="-9.0932909e-06"
       inkscape:transform-center-y="-7.1005901"
       d="m 256,1.7693183 c -6.46265,0 -23.73631,30.1979697 -23.98633,40.3012397 H 232 a 24,23.698218 0 0 0 0.0156,0.23143 c 8.8e-4,0.38452 0.0144,0.75228 0.0703,1.07035 A 24,23.698218 0 0 0 244,62.594358 a 24,23.698218 0 0 0 24,0 24,23.698218 0 0 0 11.91406,-19.23744 c 0.0541,-0.31399 0.0695,-0.67669 0.0703,-1.05493 A 24,23.698218 0 0 0 280,42.070558 h -0.0137 C 279.73631,31.967288 262.46265,1.7693183 256,1.7693183 Z" />
    <path
       id="flame-inner"
       style="fill:#ffd700;fill-opacity:1;stroke-width:0.434743"
       inkscape:transform-center-x="-6.0621939e-06"
       inkscape:transform-center-y="-3.5502951"
       d="m 256,33.769297 c -4.30843,0 -15.82421,15.098985 -15.99089,20.15062 H 240 a 16,11.849109 0 0 0 0.0104,0.115715 c 5.9e-4,0.19226 0.01,0.37614 0.0469,0.535175 a 16,11.849109 0 0 0 7.9427,9.61101 16,11.849109 0 0 0 16,0 16,11.849109 0 0 0 7.94271,-9.61872 c 0.0361,-0.156995 0.0463,-0.338345 0.0469,-0.527465 A 16,11.849109 0 0 0 272,53.919917 h -0.009 C 271.82421,48.868282 260.30843,33.769297 256,33.769297 Z" />
    <path
       id="candle-1"
       style="fill:#ff4500;fill-opacity:1;stroke-width:0.948636"
       d="m 375.00003,65.769538 c -1.662,0 -3,1.338001 -3,3 v 60.999992 29 35 h 24 v -35 -29 -60.999992 c 0,-1.661999 -1.338,-3 -3,-3 z" />
    <path
       id="flame-outer-7"
       style="fill:#ffa500;fill-opacity:1;stroke-width:0.752996"
       inkscape:transform-center-x="-9.0932909e-06"
       inkscape:transform-center-y="-7.1005901"
       d="m 384.00003,1.769539 c -6.46265,0 -23.73631,30.19797 -23.98633,40.30124 H 360 a 24,23.698218 0 0 0 0.0156,0.23143 c 8.8e-4,0.38452 0.0144,0.75228 0.0703,1.07035 A 24,23.698218 0 0 0 372,62.594579 a 24,23.698218 0 0 0 24,0 24,23.698218 0 0 0 11.91406,-19.23744 c 0.0541,-0.31399 0.0695,-0.67669 0.0703,-1.05493 a 24,23.698218 0 0 0 0.0156,-0.23143 h -0.0136 C 407.73634,31.967509 390.46268,1.769539 384.00003,1.769539 Z" />
    <path
       id="flame-inner-7"
       style="fill:#ffd700;fill-opacity:1;stroke-width:0.434743"
       inkscape:transform-center-x="-6.0621939e-06"
       inkscape:transform-center-y="-3.5502951"
       d="m 384.00003,33.769518 c -4.30843,0 -15.82421,15.098985 -15.99089,20.15062 h -0.009 a 16,11.849109 0 0 0 0.0104,0.115715 c 5.9e-4,0.19226 0.01,0.37614 0.0469,0.535175 a 16,11.849109 0 0 0 7.9427,9.61101 16,11.849109 0 0 0 16,0 16,11.849109 0 0 0 7.94271,-9.61872 c 0.0361,-0.156995 0.0463,-0.338345 0.0469,-0.527465 a 16,11.849109 0 0 0 0.0104,-0.115715 h -0.009 c -0.16679,-5.051635 -11.68257,-20.15062 -15.991,-20.15062 z" />
    <path
       id="candle-1-9"
       style="fill:#ff4500;fill-opacity:1;stroke-width:0.948636"
       d="m 118.99997,65.769418 c -1.662,0 -3,1.338001 -3,3 v 60.999992 29 35 h 24 v -35 -29 -60.999992 c 0,-1.661999 -1.338,-3 -3,-3 z" />
    <path
       id="flame-outer-7-7"
       style="fill:#ffa500;fill-opacity:1;stroke-width:0.752996"
       inkscape:transform-center-x="-9.0932909e-06"
       inkscape:transform-center-y="-7.1005901"
       d="m 128.00002,1.7692974 c -6.46265,0 -23.73631,30.1979696 -23.98633,40.3012396 h -0.0137 a 24,23.698218 0 0 0 0.0156,0.23143 c 8.8e-4,0.38452 0.0144,0.75228 0.0703,1.07035 a 24,23.698218 0 0 0 11.9141,19.22202 24,23.698218 0 0 0 24,0 24,23.698218 0 0 0 11.91406,-19.23744 c 0.0541,-0.31399 0.0695,-0.67669 0.0703,-1.05493 a 24,23.698218 0 0 0 0.0156,-0.23143 h -0.0136 C 151.73633,31.967267 134.46267,1.7692974 128.00002,1.7692974 Z" />
    <path
       id="flame-inner-7-7"
       style="fill:#ffd700;fill-opacity:1;stroke-width:0.434743"
       inkscape:transform-center-x="-6.0621939e-06"
       inkscape:transform-center-y="-3.5502951"
       d="m 128.00002,33.769276 c -4.30843,0 -15.82421,15.098985 -15.99089,20.15062 h -0.009 a 16,11.849109 0 0 0 0.0104,0.115715 c 5.9e-4,0.19226 0.01,0.37614 0.0469,0.535175 a 16,11.849109 0 0 0 7.9427,9.61101 16,11.849109 0 0 0 16,0 16,11.849109 0 0 0 7.94271,-9.61872 c 0.0361,-0.156995 0.0463,-0.338345 0.0469,-0.527465 a 16,11.849109 0 0 0 0.0104,-0.115715 h -0.009 c -0.16679,-5.051635 -11.68257,-20.15062 -15.991,-20.15062 z" />
    <path
       id="cake-top"
       style="fill:#8b4513;fill-opacity:1;stroke-width:0.977597"
       d="m 14.356881,193.76953 c -7.8747146,0 -14.214301,7.13601 -14.214301,16 v 32 48 a 28.428602,32 0 0 0 28.428602,32 28.428602,32 0 0 0 28.428602,-32 28.428602,32 0 0 1 28.428603,-32 28.428602,32 0 0 1 28.428603,32 28.428602,32 0 0 0 28.4286,32 28.428602,32 0 0 0 28.4286,-32 28.428602,32 0 0 1 28.42861,-32 28.428602,32 0 0 1 28.4286,32 28.428602,32 0 0 0 28.4286,32 28.428602,32 0 0 0 28.4286,-32 28.428602,32 0 0 1 28.4286,-32 28.428602,32 0 0 1 28.42861,32 28.428602,32 0 0 0 28.4286,32 28.428602,32 0 0 0 28.4286,-32 28.428602,32 0 0 1 28.4286,-32 28.428602,32 0 0 1 28.42861,32 28.428602,32 0 0 0 28.4286,32 28.428602,32 0 0 0 28.4286,-32 v -48 -32 c 0,-8.86399 -6.33959,-16 -14.2143,-16 z" />
  </g>
</svg>
